<?xml version="1.0" encoding="UTF-8"?>
<!-- Generator: Adobe Illustrator 14.0.0, SVG Export Plug-In . SVG Version: 6.00 Build 43363)  -->
<!DOCTYPE svg PUBLIC "-//W3C//DTD SVG 1.1//EN" "http://www.w3.org/Graphics/SVG/1.1/DTD/svg11.dtd">
<svg version="1.1" id="Layer_1" xmlns="http://www.w3.org/2000/svg" xmlns:xlink="http://www.w3.org/1999/xlink" x="0px" y="0px" width="300px" height="300px" viewBox="0 0 300 300" enable-background="new 0 0 300 300" xml:space="preserve">
<rect x="3.275" y="2.927" fill="#0060A9" width="294.096" height="294.032"/>
<rect x="76.869" y="199.864" fill="#FFFFFF" width="147.131" height="23.879"/>
<polyline fill="#FFFFFF" points="149.784,76.732 174.654,76.732 186.844,157.572 199.263,76.732 223.87,76.732 223.87,187.178 207.478,187.178 207.478,103.996 193.62,187.178 179.477,187.178 166.19,103.996 166.19,187.002 149.784,187.002 149.784,76.732"/>
<path fill="#FFFFFF" d="M115.721,111.795h16.822v-7.8c0-7.634,0-29.541-28.135-29.541c-27.457,0-27.457,25.032-27.457,29.541  c0,2.443,0,53.024,0,57.403c0,16.762,6.131,27.762,22.008,27.844c9.386,0.037,15.918-5.836,17.306-8.076v5.836l16.278,0.176v-59.847  H106.1v13.295h9.621c0,0,0,15.48,0,17.481c0,8.86-2.771,14.899-11.05,14.899c-8.242,0-10.875-6.427-10.875-14.899  c0-5.246,0-50.848,0-54.112c0-4.37,0-14.42,10.875-14.42c11.05,0,11.05,10.197,11.05,14.42  C115.721,107.674,115.721,111.795,115.721,111.795"/>
</svg>